<?xml version="1.0" encoding="UTF-8" standalone="no"?>
<!-- Created with Inkscape (http://www.inkscape.org/) -->

<svg
   xmlns:dc="http://purl.org/dc/elements/1.1/"
   xmlns:cc="http://creativecommons.org/ns#"
   xmlns:rdf="http://www.w3.org/1999/02/22-rdf-syntax-ns#"
   xmlns:svg="http://www.w3.org/2000/svg"
   xmlns="http://www.w3.org/2000/svg"
   xmlns:xlink="http://www.w3.org/1999/xlink"
   xmlns:sodipodi="http://sodipodi.sourceforge.net/DTD/sodipodi-0.dtd"
   xmlns:inkscape="http://www.inkscape.org/namespaces/inkscape"
   width="512"
   height="512"
   id="svg2"
   version="1.1"
   inkscape:version="0.47pre0 r21549"
   sodipodi:docname="palantir-icon.svg"
   inkscape:output_extension="org.inkscape.output.svg.inkscape">
  <title
     id="title3033">Palantír Icon</title>
  <defs
     id="defs4">
    <linearGradient
       id="linearGradient6966">
      <stop
         style="stop-color:#ff8f00;stop-opacity:1;"
         offset="0"
         id="stop6968" />
      <stop
         style="stop-color:#ffdf2b;stop-opacity:1;"
         offset="1"
         id="stop6970" />
    </linearGradient>
    <marker
       inkscape:stockid="RazorWire"
       id="RazorWire"
       refX="0"
       refY="0"
       orient="auto">
       style=&quot;overflow:visible&quot;&gt;
      <path
   id="path5353"
   transform="scale(0.8,0.8)"
   style="fill:#808080;fill-opacity:1;fill-rule:evenodd;stroke:#000000;stroke-width:0.1pt"
   d="M 0.022727273,-0.74009011 L 0.022727273,0.69740989 L -7.7585227,3.0099099 L 10.678977,3.0099099 L 3.4914773,0.69740989 L 3.4914773,-0.74009011 L 10.741477,-2.8963401 L -7.7272727,-2.8963401 L 0.022727273,-0.74009011 z " />
</marker>
    <marker
       inkscape:stockid="Torso"
       orient="auto"
       refY="0.0"
       refX="0.0"
       id="Torso"
       style="overflow:visible">
      <g
         id="g5333"
         transform="scale(0.7)">
        <path
           id="path5335"
           d="M -4.7792281,-3.2395420 C -2.4288541,-2.8736027 0.52103922,-1.3019943 0.25792722,0.38794346 C -0.0051877922,2.0778819 -2.2126741,2.6176539 -4.5630471,2.2517169 C -6.9134221,1.8857769 -8.5210350,0.75201414 -8.2579220,-0.93792336 C -7.9948090,-2.6278615 -7.1296041,-3.6054813 -4.7792281,-3.2395420 z "
           style="fill:none;fill-opacity:0.75000000;fill-rule:evenodd;stroke:#000000;stroke-width:1.2500000;marker-start:none;marker-mid:none;marker-end:none" />
        <path
           id="path5337"
           d="M 4.4598789,0.088665736 C -2.5564571,-4.3783320 5.2248769,-3.9061806 -0.84829578,-8.7197331"
           style="fill:none;fill-opacity:0.75000000;fill-rule:evenodd;stroke:#000000;stroke-width:1.0000000pt;marker-end:none" />
        <path
           id="path5339"
           d="M 4.9298719,0.057520736 C -1.3872731,1.7494689 1.8027579,5.4782079 -4.9448731,7.5462725"
           style="fill:none;fill-opacity:0.75000000;fill-rule:evenodd;stroke:#000000;stroke-width:1.0000000pt;marker-start:none;marker-end:none" />
        <rect
           id="rect5341"
           transform="matrix(0.527536,-0.849533,0.887668,0.460484,0,0)"
           y="-1.7408575"
           x="-10.391706"
           height="2.7608147"
           width="2.6366582"
           style="fill-rule:evenodd;stroke-width:1.0000000pt;marker-end:none" />
        <rect
           id="rect5343"
           transform="matrix(0.671205,-0.741272,0.790802,0.612072,0,0)"
           y="-7.9629307"
           x="4.9587269"
           height="2.8614161"
           width="2.7327356"
           style="fill-rule:evenodd;stroke-width:1.0000000pt;marker-end:none" />
        <path
           id="path5345"
           transform="matrix(0,-1.109517,1.109517,0,25.96648,19.71619)"
           d="m 16.779951,-28.685045 c 0,0.335412 -0.271905,0.607317 -0.607317,0.607317 -0.335412,0 -0.607317,-0.271905 -0.607317,-0.607317 0,-0.335412 0.271905,-0.607318 0.607317,-0.607318 0.335412,0 0.607317,0.271906 0.607317,0.607318 z"
           sodipodi:ry="0.60731727"
           sodipodi:rx="0.60731727"
           sodipodi:cy="-28.685045"
           sodipodi:cx="16.172634"
           style="fill:#ff0000;fill-opacity:0.75000000;fill-rule:evenodd;stroke:#000000;stroke-width:1.0000000pt;marker-start:none;marker-end:none"
           sodipodi:type="arc" />
        <path
           id="path5347"
           transform="matrix(0,-1.109517,1.109517,0,26.82450,16.99126)"
           d="m 16.779951,-28.685045 c 0,0.335412 -0.271905,0.607317 -0.607317,0.607317 -0.335412,0 -0.607317,-0.271905 -0.607317,-0.607317 0,-0.335412 0.271905,-0.607318 0.607317,-0.607318 0.335412,0 0.607317,0.271906 0.607317,0.607318 z"
           sodipodi:ry="0.60731727"
           sodipodi:rx="0.60731727"
           sodipodi:cy="-28.685045"
           sodipodi:cx="16.172634"
           style="fill:#ff0000;fill-opacity:0.75000000;fill-rule:evenodd;stroke:#000000;stroke-width:1.0000000pt;marker-start:none;marker-end:none"
           sodipodi:type="arc" />
      </g>
    </marker>
    <marker
       inkscape:stockid="DotL"
       orient="auto"
       refY="0.0"
       refX="0.0"
       id="DotL"
       style="overflow:visible">
      <path
         id="path5182"
         d="M -2.5,-1.0 C -2.5,1.7600000 -4.7400000,4.0 -7.5,4.0 C -10.260000,4.0 -12.5,1.7600000 -12.5,-1.0 C -12.5,-3.7600000 -10.260000,-6.0 -7.5,-6.0 C -4.7400000,-6.0 -2.5,-3.7600000 -2.5,-1.0 z "
         style="fill-rule:evenodd;stroke:#000000;stroke-width:1.0pt;marker-start:none;marker-end:none"
         transform="scale(0.8) translate(7.4, 1)" />
    </marker>
    <marker
       inkscape:stockid="Club"
       orient="auto"
       refY="0.0"
       refX="0.0"
       id="Club"
       style="overflow:visible">
      <path
         id="path5350"
         d="M -1.5971367,-7.0977635 C -3.4863874,-7.0977635 -5.0235187,-5.5606321 -5.0235187,-3.6713813 C -5.0235187,-3.0147015 -4.7851656,-2.4444556 -4.4641095,-1.9232271 C -4.5028609,-1.8911157 -4.5437814,-1.8647646 -4.5806531,-1.8299921 C -5.2030765,-2.6849849 -6.1700514,-3.2751330 -7.3077730,-3.2751330 C -9.1970245,-3.2751331 -10.734155,-1.7380016 -10.734155,0.15124914 C -10.734155,2.0404999 -9.1970245,3.5776313 -7.3077730,3.5776313 C -6.3143268,3.5776313 -5.4391540,3.1355702 -4.8137404,2.4588126 C -4.9384274,2.8137041 -5.0235187,3.1803000 -5.0235187,3.5776313 C -5.0235187,5.4668819 -3.4863874,7.0040135 -1.5971367,7.0040135 C 0.29211394,7.0040135 1.8292454,5.4668819 1.8292454,3.5776313 C 1.8292454,2.7842354 1.5136868,2.0838028 1.0600576,1.5031550 C 2.4152718,1.7663868 3.7718375,2.2973711 4.7661444,3.8340272 C 4.0279463,3.0958289 3.5540908,1.7534117 3.5540908,-0.058529361 L 2.9247554,-0.10514681 L 3.5074733,-0.12845553 C 3.5074733,-1.9403966 3.9580199,-3.2828138 4.6962183,-4.0210121 C 3.7371277,-2.5387813 2.4390549,-1.9946496 1.1299838,-1.7134486 C 1.5341802,-2.2753578 1.8292454,-2.9268556 1.8292454,-3.6713813 C 1.8292454,-5.5606319 0.29211394,-7.0977635 -1.5971367,-7.0977635 z "
         style="fill-rule:evenodd;stroke:#000000;stroke-width:0.74587913pt;marker-start:none"
         transform="scale(0.6)" />
    </marker>
    <marker
       inkscape:stockid="Legs"
       orient="auto"
       refY="0.0"
       refX="0.0"
       id="Legs"
       style="overflow:visible">
      <g
         id="g5320"
         transform="scale(-0.7)">
        <g
           id="g5322"
           transform="matrix(0,-1.000000,-1.000000,0,20.70862,21.31391)">
          <path
             id="path5324"
             d="M 21.221250,20.675360 C 14.311099,25.396517 18.766725,27.282204 15.380179,34.118595"
             style="fill:none;fill-opacity:0.75000000;fill-rule:evenodd;stroke:#000000;stroke-width:1.0000000pt;marker-start:none;marker-end:none" />
          <path
             id="path5326"
             d="M 21.398110,20.548120 C 20.037601,28.895644 24.934182,29.318060 25.903151,34.373078"
             style="fill:none;fill-opacity:0.75000000;fill-rule:evenodd;stroke:#000000;stroke-width:1.0000000pt;marker-start:none;marker-end:none" />
        </g>
        <path
           id="path5328"
           d="M -14.090070,-6.7318716 L -15.012238,-2.6884886 L -11.049487,-3.9115586 L -14.090070,-6.7318716 z "
           style="fill:#030300;fill-rule:evenodd;stroke-width:1.0000000pt;marker-end:none" />
        <path
           id="path5330"
           d="M -15.215679,4.5567534 L -13.341552,8.2563664 L -11.074678,4.7835114 L -15.215679,4.5567534 z "
           style="fill:#030300;fill-rule:evenodd;stroke-width:1.0000000pt;marker-end:none" />
      </g>
    </marker>
    <linearGradient
       id="linearGradient5109">
      <stop
         style="stop-color:#ffff00;stop-opacity:1;"
         offset="0"
         id="stop5111" />
      <stop
         style="stop-color:#ff0000;stop-opacity:0.88259107;"
         offset="1"
         id="stop5113" />
    </linearGradient>
    <linearGradient
       id="linearGradient5101">
      <stop
         style="stop-color:#ff6200;stop-opacity:1;"
         offset="0"
         id="stop5103" />
      <stop
         style="stop-color:#ffcb00;stop-opacity:1;"
         offset="1"
         id="stop5105" />
    </linearGradient>
    <linearGradient
       id="linearGradient5052">
      <stop
         style="stop-color:#ffffff;stop-opacity:1;"
         offset="0"
         id="stop5054" />
      <stop
         style="stop-color:#ffffff;stop-opacity:0;"
         offset="1"
         id="stop5056" />
    </linearGradient>
    <linearGradient
       id="linearGradient5038">
      <stop
         style="stop-color:#000000;stop-opacity:0;"
         offset="0"
         id="stop5040" />
      <stop
         style="stop-color:#cccccc;stop-opacity:0.65182185;"
         offset="1"
         id="stop5042" />
    </linearGradient>
    <linearGradient
       id="linearGradient3590">
      <stop
         style="stop-color:#000000;stop-opacity:1;"
         offset="0"
         id="stop3592" />
      <stop
         style="stop-color:#ffffff;stop-opacity:0;"
         offset="1"
         id="stop3594" />
    </linearGradient>
    <inkscape:perspective
       sodipodi:type="inkscape:persp3d"
       inkscape:vp_x="0 : 526.18109 : 1"
       inkscape:vp_y="0 : 1000 : 0"
       inkscape:vp_z="744.09448 : 526.18109 : 1"
       inkscape:persp3d-origin="372.04724 : 350.78739 : 1"
       id="perspective10" />
    <linearGradient
       inkscape:collect="always"
       xlink:href="#linearGradient5052"
       id="linearGradient5058"
       x1="256.57874"
       y1="353.33661"
       x2="604.07123"
       y2="353.33661"
       gradientUnits="userSpaceOnUse" />
    <linearGradient
       inkscape:collect="always"
       xlink:href="#linearGradient5038"
       id="linearGradient5064"
       gradientUnits="userSpaceOnUse"
       x1="142.85713"
       y1="602.36218"
       x2="571.42859"
       y2="602.36218" />
    <linearGradient
       inkscape:collect="always"
       xlink:href="#linearGradient5101"
       id="linearGradient5107"
       x1="108.08839"
       y1="776.30954"
       x2="282.79485"
       y2="776.30954"
       gradientUnits="userSpaceOnUse" />
    <linearGradient
       inkscape:collect="always"
       xlink:href="#linearGradient5109"
       id="linearGradient5115"
       x1="108.08839"
       y1="776.30954"
       x2="282.79485"
       y2="776.30954"
       gradientUnits="userSpaceOnUse" />
    <linearGradient
       inkscape:collect="always"
       xlink:href="#linearGradient6966"
       id="linearGradient6976"
       x1="108.08845"
       y1="776.30957"
       x2="282.7948"
       y2="776.30957"
       gradientUnits="userSpaceOnUse"
       spreadMethod="pad" />
    <filter
       inkscape:collect="always"
       id="filter6986"
       x="-0.12127104"
       width="1.2425421"
       y="-0.03343184"
       height="1.0668637">
      <feGaussianBlur
         inkscape:collect="always"
         stdDeviation="4.1738247"
         id="feGaussianBlur6988" />
    </filter>
    <filter
       inkscape:collect="always"
       id="filter6994"
       x="-0.13644978"
       width="1.2728996"
       y="-0.1091692"
       height="1.2183384">
      <feGaussianBlur
         inkscape:collect="always"
         stdDeviation="9.1260617"
         id="feGaussianBlur6996" />
    </filter>
    <filter
       inkscape:collect="always"
       id="filter6998"
       x="-0.10633463"
       width="1.2126693"
       y="-0.066614065"
       height="1.1332281">
      <feGaussianBlur
         inkscape:collect="always"
         stdDeviation="6.3773974"
         id="feGaussianBlur7000" />
    </filter>
    <filter
       inkscape:collect="always"
       id="filter7002"
       x="-0.033548246"
       width="1.0670965"
       y="-0.11241374"
       height="1.2248275">
      <feGaussianBlur
         inkscape:collect="always"
         stdDeviation="7.4884934"
         id="feGaussianBlur7004" />
    </filter>
    <linearGradient
       inkscape:collect="always"
       xlink:href="#linearGradient5101"
       id="linearGradient7013"
       gradientUnits="userSpaceOnUse"
       x1="108.08839"
       y1="776.30954"
       x2="282.79485"
       y2="776.30954" />
    <linearGradient
       inkscape:collect="always"
       xlink:href="#linearGradient6966"
       id="linearGradient7015"
       gradientUnits="userSpaceOnUse"
       spreadMethod="pad"
       x1="108.08845"
       y1="776.30957"
       x2="282.7948"
       y2="776.30957" />
    <linearGradient
       inkscape:collect="always"
       xlink:href="#linearGradient5109"
       id="linearGradient7017"
       gradientUnits="userSpaceOnUse"
       x1="108.08839"
       y1="776.30954"
       x2="282.79485"
       y2="776.30954" />
    <linearGradient
       inkscape:collect="always"
       xlink:href="#linearGradient5052"
       id="linearGradient7019"
       gradientUnits="userSpaceOnUse"
       x1="256.57874"
       y1="353.33661"
       x2="604.07123"
       y2="353.33661" />
    <filter
       inkscape:collect="always"
       id="filter7021"
       x="-0.10777755"
       width="1.2155551"
       y="-0.13360854"
       height="1.2672171">
      <feGaussianBlur
         inkscape:collect="always"
         stdDeviation="19.245991"
         id="feGaussianBlur7023" />
    </filter>
    <linearGradient
       inkscape:collect="always"
       xlink:href="#linearGradient5052"
       id="linearGradient7030"
       gradientUnits="userSpaceOnUse"
       x1="256.57874"
       y1="353.33661"
       x2="604.07123"
       y2="353.33661" />
  </defs>
  <sodipodi:namedview
     id="base"
     pagecolor="#ffffff"
     bordercolor="#666666"
     borderopacity="1.0"
     inkscape:pageopacity="0.0"
     inkscape:pageshadow="2"
     inkscape:zoom="0.98994949"
     inkscape:cx="-48.480987"
     inkscape:cy="243.92801"
     inkscape:document-units="px"
     inkscape:current-layer="layer1"
     showgrid="false"
     inkscape:window-width="1440"
     inkscape:window-height="804"
     inkscape:window-x="0"
     inkscape:window-y="0"
     inkscape:window-maximized="1" />
  <metadata
     id="metadata7">
    <rdf:RDF>
      <cc:Work
         rdf:about="">
        <dc:format>image/svg+xml</dc:format>
        <dc:type
           rdf:resource="http://purl.org/dc/dcmitype/StillImage" />
        <dc:title>Palantír Icon</dc:title>
        <dc:date>17.01.2010</dc:date>
        <dc:creator>
          <cc:Agent>
            <dc:title>Sebastian Staudt</dc:title>
          </cc:Agent>
        </dc:creator>
        <cc:license
           rdf:resource="http://www.opensource.org/licenses/bsd-license.php" />
        <dc:coverage></dc:coverage>
      </cc:Work>
    </rdf:RDF>
  </metadata>
  <g
     inkscape:label="Ebene 1"
     inkscape:groupmode="layer"
     id="layer1"
     transform="translate(0,-540.36218)">
    <path
       transform="matrix(0,-1.1831128,-1.4666688,0,1139.4658,1218.9025)"
       d="m 571.42857,602.36218 c 0,95.46637 -95.93898,172.85715 -214.28572,172.85715 -118.34673,0 -214.28572,-77.39078 -214.28572,-172.85715 0,-95.46636 95.93899,-172.85714 214.28572,-172.85714 118.34674,0 214.28572,77.39078 214.28572,172.85714 z"
       sodipodi:ry="172.85715"
       sodipodi:rx="214.28572"
       sodipodi:cy="602.36218"
       sodipodi:cx="357.14285"
       id="path5062"
       style="fill:#000000;fill-opacity:1;stroke:#ffffff;stroke-width:3.75898266;stroke-miterlimit:10;stroke-opacity:1;stroke-dasharray:none"
       sodipodi:type="arc" />
    <path
       sodipodi:type="spiral"
       style="fill:none;stroke:url(#linearGradient7013);stroke-width:8.39999962;stroke-linecap:round;stroke-miterlimit:4;stroke-opacity:1;stroke-dasharray:none;filter:url(#filter6994)"
       id="path5070"
       sodipodi:cx="171.72594"
       sodipodi:cy="771.53979"
       sodipodi:expansion="1"
       sodipodi:revolution="1.2373292"
       sodipodi:radius="119.73461"
       sodipodi:argument="-19.456861"
       sodipodi:t0="0"
       d="m 171.72594,771.53979 c 11.95278,-8.30617 17.09364,12.01415 13.80541,19.86632 -8.9109,21.27891 -37.94252,19.7318 -53.53805,7.74452 -27.89673,-21.44243 -24.06559,-63.39468 -1.68361,-87.20978 32.84646,-34.94963 89.21709,-28.597 120.88151,4.37728 39.55051,41.18658 34.46523,107.4946 -3.53467,147.80094"
       transform="matrix(2.2294627,0.47393599,-0.26214225,1.2331546,70.04196,-258.81294)" />
    <path
       transform="matrix(-0.70429074,-2.1677393,1.1990143,-0.38955545,-557.09671,1482.6807)"
       d="m 171.72594,771.53979 c 11.95278,-8.30617 17.09364,12.01415 13.80541,19.86632 -8.9109,21.27891 -37.94252,19.7318 -53.53805,7.74452 -27.89673,-21.44243 -24.06559,-63.39468 -1.68361,-87.20978 32.84646,-34.94963 89.21709,-28.597 120.88151,4.37728 39.55051,41.18658 34.46523,107.4946 -3.53467,147.80094"
       sodipodi:t0="0"
       sodipodi:argument="-19.456861"
       sodipodi:radius="119.73461"
       sodipodi:revolution="1.2373292"
       sodipodi:expansion="1"
       sodipodi:cy="771.53979"
       sodipodi:cx="171.72594"
       id="path5089"
       style="fill:none;stroke:url(#linearGradient7015);stroke-width:8.39988041;stroke-linecap:round;stroke-miterlimit:4;stroke-opacity:1;stroke-dasharray:none;marker-mid:none;marker-end:none;filter:url(#filter6986)"
       sodipodi:type="spiral" />
    <path
       sodipodi:type="spiral"
       style="fill:none;stroke:url(#linearGradient7017);stroke-width:8.39988041;stroke-linecap:round;stroke-miterlimit:4;stroke-opacity:1;stroke-dasharray:none;filter:url(#filter6998)"
       id="path5091"
       sodipodi:cx="171.72594"
       sodipodi:cy="771.53979"
       sodipodi:expansion="1"
       sodipodi:revolution="1.2373292"
       sodipodi:radius="119.73461"
       sodipodi:argument="-19.456861"
       sodipodi:t0="0"
       d="m 171.72594,771.53979 c 11.95278,-8.30617 17.09364,12.01415 13.80541,19.86632 -8.9109,21.27891 -37.94252,19.7318 -53.53805,7.74452 -27.89673,-21.44243 -24.06559,-63.39468 -1.68361,-87.20978 32.84646,-34.94963 89.21709,-28.597 120.88151,4.37728 39.55051,41.18658 34.46523,107.4946 -3.53467,147.80094"
       transform="matrix(-1.5251719,1.6938033,-0.93687207,-0.84359912,1265.2835,1154.5119)" />
    <path
       sodipodi:type="arc"
       style="fill:url(#linearGradient7030);fill-opacity:1;stroke-width:2;stroke-miterlimit:10;stroke-dasharray:none;filter:url(#filter7002)"
       id="path5050"
       sodipodi:cx="430.32498"
       sodipodi:cy="353.33661"
       sodipodi:rx="173.74623"
       sodipodi:ry="123.23861"
       d="m 604.07121,353.33661 c 0,68.0628 -77.78883,123.23861 -173.74623,123.23861 -95.95739,0 -173.74623,-55.17581 -173.74623,-123.23861 0,-68.06281 77.78884,-123.23861 173.74623,-123.23861 95.9574,0 173.74623,55.1758 173.74623,123.23861 z"
       transform="matrix(0,-0.55813952,-1.4582385,0,771.24905,888.25186)" />
    <path
       sodipodi:type="arc"
       style="fill:url(#linearGradient5064);fill-opacity:1;stroke-width:2;stroke-miterlimit:10;stroke-dasharray:none;filter:url(#filter7021)"
       id="path2816"
       sodipodi:cx="357.14285"
       sodipodi:cy="602.36218"
       sodipodi:rx="214.28572"
       sodipodi:ry="172.85715"
       d="m 571.42857,602.36218 c 0,95.46637 -95.93898,172.85715 -214.28572,172.85715 -118.34673,0 -214.28572,-77.39078 -214.28572,-172.85715 0,-95.46636 95.93899,-172.85714 214.28572,-172.85714 118.34674,0 214.28572,77.39078 214.28572,172.85714 z"
       transform="matrix(0,1.1946666,-1.4809917,0,1148.0934,369.69554)" />
  </g>
</svg>
